<svg width="48" height="48" viewBox="0 0 48 48" fill="none" xmlns="http://www.w3.org/2000/svg">
<g filter="url(#filter0_d_2060_4041)">
<rect x="8" y="8" width="32" height="32" rx="16" fill="#2563EB"/>
<path fill-rule="evenodd" clip-rule="evenodd" d="M18 18C17.4696 18 16.9609 18.2107 16.5858 18.5858C16.2107 18.9609 16 19.4696 16 20V24C16 24.5304 16.2107 25.0391 16.5858 25.4142C16.9609 25.7893 17.4696 26 18 26V20H28C28 19.4696 27.7893 18.9609 27.4142 18.5858C27.0391 18.2107 26.5304 18 26 18H18ZM20 24C20 23.4696 20.2107 22.9609 20.5858 22.5858C20.9609 22.2107 21.4696 22 22 22H30C30.5304 22 31.0391 22.2107 31.4142 22.5858C31.7893 22.9609 32 23.4696 32 24V28C32 28.5304 31.7893 29.0391 31.4142 29.4142C31.0391 29.7893 30.5304 30 30 30H22C21.4696 30 20.9609 29.7893 20.5858 29.4142C20.2107 29.0391 20 28.5304 20 28V24ZM26 28C26.5304 28 27.0391 27.7893 27.4142 27.4142C27.7893 27.0391 28 26.5304 28 26C28 25.4696 27.7893 24.9609 27.4142 24.5858C27.0391 24.2107 26.5304 24 26 24C25.4696 24 24.9609 24.2107 24.5858 24.5858C24.2107 24.9609 24 25.4696 24 26C24 26.5304 24.2107 27.0391 24.5858 27.4142C24.9609 27.7893 25.4696 28 26 28Z" fill="white"/>
</g>
<defs>
<filter id="filter0_d_2060_4041" x="0" y="0" width="48" height="48" filterUnits="userSpaceOnUse" color-interpolation-filters="sRGB">
<feFlood flood-opacity="0" result="BackgroundImageFix"/>
<feColorMatrix in="SourceAlpha" type="matrix" values="0 0 0 0 0 0 0 0 0 0 0 0 0 0 0 0 0 0 127 0" result="hardAlpha"/>
<feMorphology radius="8" operator="dilate" in="SourceAlpha" result="effect1_dropShadow_2060_4041"/>
<feOffset/>
<feColorMatrix type="matrix" values="0 0 0 0 1 0 0 0 0 1 0 0 0 0 1 0 0 0 1 0"/>
<feBlend mode="normal" in2="BackgroundImageFix" result="effect1_dropShadow_2060_4041"/>
<feBlend mode="normal" in="SourceGraphic" in2="effect1_dropShadow_2060_4041" result="shape"/>
</filter>
</defs>
</svg>
