<svg width="24" height="24" viewBox="0 0 24 24" fill="none" xmlns="http://www.w3.org/2000/svg">
<path d="M4.7999 6.7H4.2999V7.2V13.833C3.98367 13.7468 3.69223 13.5793 3.4564 13.3435C3.10008 12.9872 2.8999 12.5039 2.8999 12V7.2C2.8999 6.69609 3.10008 6.21282 3.4564 5.8565C3.81272 5.50018 4.29599 5.3 4.7999 5.3H14.3999C14.9038 5.3 15.3871 5.50018 15.7434 5.8565C15.9792 6.09233 16.1467 6.38377 16.2329 6.7H4.7999ZM7.6999 12C7.6999 11.4961 7.90008 11.0128 8.2564 10.6565C8.61272 10.3002 9.09599 10.1 9.5999 10.1H19.1999C19.7038 10.1 20.1871 10.3002 20.5434 10.6565C20.8997 11.0128 21.0999 11.4961 21.0999 12V16.8C21.0999 17.3039 20.8997 17.7872 20.5434 18.1435C20.1871 18.4998 19.7038 18.7 19.1999 18.7H9.5999C9.09599 18.7 8.61272 18.4998 8.2564 18.1435C7.90008 17.7872 7.6999 17.3039 7.6999 16.8V12ZM14.3999 17.3C15.169 17.3 15.9067 16.9945 16.4505 16.4506C16.9944 15.9068 17.2999 15.1691 17.2999 14.4C17.2999 13.6309 16.9944 12.8932 16.4505 12.3494C15.9067 11.8055 15.169 11.5 14.3999 11.5C13.6308 11.5 12.8931 11.8055 12.3493 12.3494C11.8054 12.8932 11.4999 13.6309 11.4999 14.4C11.4999 15.1691 11.8054 15.9068 12.3493 16.4506C12.8931 16.9945 13.6308 17.3 14.3999 17.3Z" fill="#3B82F6" stroke="#3B82F6"/>
</svg>
