<svg width="24" height="24" viewBox="0 0 24 24" fill="none" xmlns="http://www.w3.org/2000/svg">
<path d="M2.8999 13.2C2.8999 13.0144 2.97365 12.8363 3.10493 12.705C3.2362 12.5738 3.41425 12.5 3.5999 12.5H5.9999C6.18555 12.5 6.3636 12.5738 6.49488 12.705C6.62615 12.8363 6.6999 13.0144 6.6999 13.2V19.2C6.6999 19.3857 6.62615 19.5637 6.49488 19.695C6.3636 19.8263 6.18556 19.9 5.9999 19.9H3.5999C3.41425 19.9 3.2362 19.8263 3.10493 19.695C2.97365 19.5637 2.8999 19.3857 2.8999 19.2V13.2ZM10.0999 8.40001C10.0999 8.21435 10.1737 8.03631 10.3049 7.90503C10.4362 7.77376 10.6143 7.70001 10.7999 7.70001H13.1999C13.3856 7.70001 13.5636 7.77376 13.6949 7.90503C13.8262 8.03631 13.8999 8.21435 13.8999 8.40001V19.2C13.8999 19.3857 13.8262 19.5637 13.6949 19.695C13.5636 19.8263 13.3856 19.9 13.1999 19.9H10.7999C10.6142 19.9 10.4362 19.8263 10.3049 19.695C10.1737 19.5637 10.0999 19.3857 10.0999 19.2V8.40001ZM17.2999 4.80001C17.2999 4.61435 17.3737 4.43631 17.5049 4.30503C17.6362 4.17376 17.8143 4.10001 17.9999 4.10001H20.3999C20.5856 4.10001 20.7636 4.17376 20.8949 4.30503C21.0262 4.43631 21.0999 4.61435 21.0999 4.80001V19.2C21.0999 19.3857 21.0262 19.5637 20.8949 19.695C20.7636 19.8263 20.5856 19.9 20.3999 19.9H17.9999C17.8143 19.9 17.6362 19.8263 17.5049 19.695C17.3737 19.5637 17.2999 19.3857 17.2999 19.2V4.80001Z" fill="#3B82F6" stroke="#3B82F6"/>
</svg>
