<svg width="24" height="24" viewBox="0 0 24 24" fill="none" xmlns="http://www.w3.org/2000/svg">
<path d="M4.4872 18.6255L4.4873 18.6256L9.2872 21.0255C9.39389 21.0788 9.51244 21.104 9.63159 21.0986C9.75075 21.0933 9.86655 21.0576 9.96802 20.9949C10.0695 20.9322 10.1533 20.8446 10.2114 20.7404C10.2695 20.6363 10.3 20.519 10.3001 20.3997V13.4835C10.3 13.3535 10.2638 13.2261 10.1954 13.1156C10.127 13.0051 10.0293 12.9158 9.913 12.8577L9.91289 12.8576L5.113 10.4577C5.11296 10.4576 5.11293 10.4576 5.11289 10.4576C5.00622 10.4043 4.88772 10.3792 4.7686 10.3845C4.64945 10.3899 4.53364 10.4256 4.43217 10.4883C4.3307 10.551 4.24694 10.6386 4.18882 10.7428C4.13072 10.8469 4.10018 10.9641 4.1001 11.0834L4.4872 18.6255ZM4.4872 18.6255C4.37094 18.5674 4.27315 18.4781 4.20478 18.3676C4.13642 18.2571 4.10017 18.1297 4.1001 17.9997L4.4872 18.6255ZM19.513 18.6255L19.5129 18.6256L14.713 21.0255C14.713 21.0255 14.7129 21.0256 14.7129 21.0256C14.6062 21.0789 14.4877 21.104 14.3686 21.0986C14.2494 21.0933 14.1336 21.0576 14.0322 20.9949C13.9307 20.9322 13.8469 20.8446 13.7888 20.7404C13.7307 20.6363 13.7002 20.519 13.7001 20.3997V13.4835C13.7002 13.3535 13.7364 13.2261 13.8048 13.1156C13.8732 13.0051 13.9709 12.9158 14.0872 12.8577L14.0873 12.8576L18.8872 10.4577C18.8872 10.4576 18.8873 10.4576 18.8873 10.4576C18.994 10.4043 19.1125 10.3792 19.2316 10.3845C19.3507 10.3899 19.4666 10.4256 19.568 10.4883C19.6695 10.551 19.7533 10.6386 19.8114 10.7428C19.8695 10.8469 19.9 10.9642 19.9001 11.0835V17.9997C19.9 18.1297 19.8638 18.2571 19.7954 18.3676C19.727 18.4781 19.6293 18.5674 19.513 18.6255ZM18.3112 6.82612C18.243 6.93664 18.1454 7.026 18.0293 7.08419L12.313 9.94233C12.313 9.94234 12.3129 9.94236 12.3129 9.94238C12.2158 9.9909 12.1087 10.0162 12.0001 10.0162C11.8915 10.0162 11.7844 9.9909 11.6873 9.94238C11.6873 9.94236 11.6872 9.94234 11.6872 9.94233L5.97093 7.08419C5.97087 7.08417 5.97081 7.08414 5.97076 7.08411C5.85472 7.02591 5.75714 6.93659 5.68895 6.82612C5.62071 6.7156 5.58458 6.58828 5.58458 6.45839C5.58458 6.32851 5.62071 6.20119 5.68895 6.09067C5.75714 5.9802 5.85472 5.89088 5.97076 5.83268C5.97081 5.83265 5.97087 5.83262 5.97093 5.83259L11.6872 2.97446C11.6872 2.97444 11.6873 2.97443 11.6873 2.97441C11.7844 2.92589 11.8915 2.90063 12.0001 2.90063C12.1087 2.90063 12.2158 2.92589 12.3129 2.97441C12.3129 2.97443 12.313 2.97444 12.313 2.97446L18.0293 5.83259C18.1454 5.89079 18.243 5.98015 18.3112 6.09067C18.3795 6.20119 18.4156 6.32851 18.4156 6.45839C18.4156 6.58828 18.3795 6.7156 18.3112 6.82612Z" fill="#007AFF" stroke="#007AFF"/>
</svg>
