<svg width="25" height="24" viewBox="0 0 25 24" fill="none" xmlns="http://www.w3.org/2000/svg">
    <path d="M4.56401 18.6255L4.56412 18.6256L9.36401 21.0255C9.36405 21.0255 9.36408 21.0256 9.36412 21.0256C9.47078 21.0789 9.58929 21.104 9.70841 21.0986C9.82756 21.0933 9.94337 21.0576 10.0448 20.9949C10.1463 20.9322 10.2301 20.8446 10.2882 20.7404C10.3463 20.6363 10.3768 20.519 10.3769 20.3997V13.4835C10.3768 13.3535 10.3406 13.2261 10.2722 13.1156C10.2039 13.0051 10.1061 12.9158 9.98981 12.8577L9.9897 12.8576L5.18981 10.4577C5.18977 10.4576 5.18974 10.4576 5.1897 10.4576C5.08304 10.4043 4.96453 10.3792 4.84541 10.3845C4.72626 10.3899 4.61045 10.4256 4.50899 10.4883C4.40752 10.551 4.32375 10.6386 4.26563 10.7428C4.20753 10.8469 4.17699 10.9641 4.17691 11.0834C4.17691 11.0834 4.17691 11.0834 4.17691 11.0835L3.67691 11.0832L4.56401 18.6255ZM4.56401 18.6255C4.44775 18.5674 4.34996 18.4781 4.2816 18.3676C4.21323 18.2571 4.17698 18.1297 4.17691 17.9997L4.56401 18.6255ZM18.1064 7.08404C18.2224 7.02584 18.3199 6.93654 18.3881 6.82612C18.4563 6.7156 18.4924 6.58828 18.4924 6.45839C18.4924 6.32851 18.4563 6.20119 18.3881 6.09067C18.3199 5.98028 18.2224 5.89101 18.1065 5.83281L18.1064 7.08404ZM18.1064 7.08404C18.1063 7.08409 18.1062 7.08414 18.1061 7.08419L12.3898 9.94233C12.3898 9.94234 12.3897 9.94236 12.3897 9.94238C12.2926 9.9909 12.1855 10.0162 12.0769 10.0162C11.9683 10.0162 11.8612 9.9909 11.7641 9.94238C11.7641 9.94236 11.764 9.94234 11.764 9.94233L6.04774 7.08419C6.04764 7.08414 6.04753 7.08409 6.04743 7.08404C5.93145 7.02584 5.83393 6.93654 5.76576 6.82612C5.69753 6.7156 5.66139 6.58828 5.66139 6.45839C5.66139 6.32851 5.69753 6.20119 5.76576 6.09067C5.83396 5.9802 5.93153 5.89088 6.04757 5.83268C6.04763 5.83265 6.04769 5.83262 6.04774 5.83259L11.764 2.97446C11.764 2.97444 11.7641 2.97443 11.7641 2.97441C11.8612 2.92589 11.9683 2.90063 12.0769 2.90063C12.1855 2.90063 12.2926 2.92589 12.3897 2.97441C12.3897 2.97443 12.3898 2.97444 12.3898 2.97446L18.1061 5.83259L18.1064 7.08404ZM19.5898 18.6255L19.5897 18.6256L14.7898 21.0255C14.7898 21.0255 14.7897 21.0256 14.7897 21.0256C14.683 21.0789 14.5645 21.104 14.4454 21.0986C14.3263 21.0933 14.2105 21.0576 14.109 20.9949C14.0075 20.9322 13.9237 20.8446 13.8656 20.7404C13.8075 20.6363 13.777 20.519 13.7769 20.3997V13.4835C13.777 13.3535 13.8132 13.2261 13.8816 13.1156C13.95 13.0051 14.0478 12.9158 14.164 12.8577L14.1641 12.8576L18.964 10.4577C19.0707 10.4043 19.1893 10.3792 19.3084 10.3845C19.4276 10.3899 19.5434 10.4256 19.6448 10.4883C19.7463 10.551 19.8301 10.6386 19.8882 10.7428C19.9463 10.8469 19.9768 10.9642 19.9769 11.0835V17.9997C19.9768 18.1297 19.9406 18.2571 19.8722 18.3676C19.8039 18.4781 19.7061 18.5674 19.5898 18.6255Z" fill="#6B7280" stroke="#6B7280"/>
</svg>
