<svg width="24" height="24" viewBox="0 0 24 24" fill="none" xmlns="http://www.w3.org/2000/svg">
<path d="M14.0462 3.45669L14.0463 3.45675L18.1431 7.55355L18.1431 7.5536C18.4994 7.90981 18.6997 8.39296 18.6998 8.89679C18.6998 8.89683 18.6998 8.89687 18.6998 8.8969V19.2C18.6998 19.7039 18.4996 20.1872 18.1433 20.5435C17.787 20.8998 17.3037 21.1 16.7998 21.1H7.1998C6.69589 21.1 6.21262 20.8998 5.8563 20.5435C5.49998 20.1872 5.2998 19.7039 5.2998 19.2V4.79999C5.2998 4.29608 5.49998 3.81281 5.8563 3.45649C6.21262 3.10017 6.69589 2.89999 7.1998 2.89999H12.7029C12.7029 2.89999 12.703 2.89999 12.703 2.89999C13.2068 2.90013 13.69 3.10038 14.0462 3.45669ZM7.19772 10.7979C6.87891 11.1167 6.6998 11.5491 6.6998 12C6.6998 12.4509 6.87891 12.8833 7.19772 13.2021C7.51654 13.5209 7.94894 13.7 8.3998 13.7H15.5998C16.0507 13.7 16.4831 13.5209 16.8019 13.2021C17.1207 12.8833 17.2998 12.4509 17.2998 12C17.2998 11.5491 17.1207 11.1167 16.8019 10.7979C16.4831 10.4791 16.0507 10.3 15.5998 10.3H8.3998C7.94894 10.3 7.51654 10.4791 7.19772 10.7979ZM8.3998 15.1C7.94894 15.1 7.51654 15.2791 7.19772 15.5979C6.87891 15.9167 6.6998 16.3491 6.6998 16.8C6.6998 17.2509 6.87891 17.6833 7.19772 18.0021C7.51654 18.3209 7.94894 18.5 8.3998 18.5H15.5998C16.0507 18.5 16.4831 18.3209 16.8019 18.0021C17.1207 17.6833 17.2998 17.2509 17.2998 16.8C17.2998 16.3491 17.1207 15.9167 16.8019 15.5979C16.4831 15.2791 16.0507 15.1 15.5998 15.1H8.3998Z" fill="#3B82F6" stroke="#3B82F6"/>
</svg>
