<svg width="14" height="14" viewBox="0 0 14 14" fill="none" xmlns="http://www.w3.org/2000/svg">
<path fill-rule="evenodd" clip-rule="evenodd" d="M7 3.5C7.18565 3.5 7.3637 3.57375 7.49497 3.70503C7.62625 3.8363 7.7 4.01435 7.7 4.2V6.3H9.8C9.98565 6.3 10.1637 6.37375 10.295 6.50503C10.4262 6.6363 10.5 6.81435 10.5 7C10.5 7.18565 10.4262 7.3637 10.295 7.49497C10.1637 7.62625 9.98565 7.7 9.8 7.7H7.7V9.8C7.7 9.98565 7.62625 10.1637 7.49497 10.295C7.3637 10.4262 7.18565 10.5 7 10.5C6.81435 10.5 6.6363 10.4262 6.50503 10.295C6.37375 10.1637 6.3 9.98565 6.3 9.8V7.7H4.2C4.01435 7.7 3.8363 7.62625 3.70503 7.49497C3.57375 7.3637 3.5 7.18565 3.5 7C3.5 6.81435 3.57375 6.6363 3.70503 6.50503C3.8363 6.37375 4.01435 6.3 4.2 6.3H6.3V4.2C6.3 4.01435 6.37375 3.8363 6.50503 3.70503C6.6363 3.57375 6.81435 3.5 7 3.5V3.5Z" fill="#4338CA"/>
</svg>
