<svg width="14" height="14" viewBox="0 0 14 14" fill="none" xmlns="http://www.w3.org/2000/svg">
<path fill-rule="evenodd" clip-rule="evenodd" d="M6.29985 1.39999C6.16989 1.40006 6.04251 1.43631 5.93198 1.50468C5.82146 1.57305 5.73215 1.67084 5.67405 1.78709L5.16725 2.79999H2.79985C2.6142 2.79999 2.43615 2.87374 2.30488 3.00502C2.1736 3.13629 2.09985 3.31434 2.09985 3.49999C2.09985 3.68565 2.1736 3.86369 2.30488 3.99497C2.43615 4.12624 2.6142 4.19999 2.79985 4.19999V11.2C2.79985 11.5713 2.94735 11.9274 3.2099 12.1899C3.47245 12.4525 3.82855 12.6 4.19985 12.6H9.79985C10.1712 12.6 10.5273 12.4525 10.7898 12.1899C11.0524 11.9274 11.1999 11.5713 11.1999 11.2V4.19999C11.3855 4.19999 11.5636 4.12624 11.6948 3.99497C11.8261 3.86369 11.8999 3.68565 11.8999 3.49999C11.8999 3.31434 11.8261 3.13629 11.6948 3.00502C11.5636 2.87374 11.3855 2.79999 11.1999 2.79999H8.83245L8.32565 1.78709C8.26756 1.67084 8.17825 1.57305 8.06772 1.50468C7.95719 1.43631 7.82982 1.40006 7.69985 1.39999H6.29985ZM4.89985 5.59999C4.89985 5.41434 4.9736 5.2363 5.10488 5.10502C5.23615 4.97374 5.4142 4.89999 5.59985 4.89999C5.7855 4.89999 5.96355 4.97374 6.09483 5.10502C6.2261 5.2363 6.29985 5.41434 6.29985 5.59999V9.79999C6.29985 9.98565 6.2261 10.1637 6.09483 10.295C5.96355 10.4262 5.7855 10.5 5.59985 10.5C5.4142 10.5 5.23615 10.4262 5.10488 10.295C4.9736 10.1637 4.89985 9.98565 4.89985 9.79999V5.59999ZM8.39985 4.89999C8.2142 4.89999 8.03615 4.97374 7.90488 5.10502C7.7736 5.2363 7.69985 5.41434 7.69985 5.59999V9.79999C7.69985 9.98565 7.7736 10.1637 7.90488 10.295C8.03615 10.4262 8.2142 10.5 8.39985 10.5C8.5855 10.5 8.76355 10.4262 8.89483 10.295C9.0261 10.1637 9.09985 9.98565 9.09985 9.79999V5.59999C9.09985 5.41434 9.0261 5.2363 8.89483 5.10502C8.76355 4.97374 8.5855 4.89999 8.39985 4.89999Z" fill="#111827"/>
</svg>
