<svg width="22" height="19" viewBox="0 0 22 19" fill="none" xmlns="http://www.w3.org/2000/svg">
    <path d="M3.29995 18.1001V15.0004V15.0001H3.79995C3.79851 13.9518 4.02699 12.9181 4.46679 11.9712L3.29995 18.1001ZM3.29995 18.1001H0.699951L0.699952 15.0001L0.699951 14.9999C0.699752 14.5267 0.807897 14.0597 1.0161 13.6347L0.567088 13.4147L1.0161 13.6347C1.2243 13.2097 1.52702 12.8381 1.90108 12.5482L1.59481 12.153L1.90108 12.5482C2.27514 12.2583 2.71059 12.058 3.17407 11.9624C3.42974 11.9097 3.6902 11.8897 3.94927 11.9022L3.29995 18.1001ZM18.7 15.0008V18.1001H21.3V15.001C21.2991 14.5279 21.1903 14.0614 20.9817 13.6368C20.7732 13.2123 20.4704 12.841 20.0965 12.5512C19.7226 12.2615 19.2875 12.061 18.8243 11.965C18.5694 11.9121 18.3097 11.8917 18.0513 11.9036C18.4795 12.8773 18.7015 13.932 18.7 15.0008ZM18.7 15.0008L18.2 15.0001M14.1 4.2001C14.1 5.02227 13.7733 5.81077 13.192 6.39213C12.6106 6.97349 11.8221 7.3001 11 7.3001C10.1778 7.3001 9.38928 6.97349 8.80792 6.39213C8.22656 5.81077 7.89995 5.02227 7.89995 4.2001C7.89995 3.37793 8.22656 2.58943 8.80792 2.00807C9.38928 1.4267 10.1778 1.1001 11 1.1001C11.8221 1.1001 12.6106 1.4267 13.192 2.00807C13.7733 2.58943 14.1 3.37793 14.1 4.2001ZM20.1 6.6001C20.1 7.10401 19.8998 7.58728 19.5435 7.9436C19.1871 8.29992 18.7039 8.5001 18.2 8.5001C17.696 8.5001 17.2128 8.29992 16.8564 7.9436C16.5001 7.58728 16.3 7.10401 16.3 6.6001C16.3 6.09619 16.5001 5.61291 16.8564 5.25659C17.2128 4.90028 17.696 4.7001 18.2 4.7001C18.7039 4.7001 19.1871 4.90028 19.5435 5.25659C19.8998 5.61291 20.1 6.09619 20.1 6.6001ZM14.0405 11.9595C14.8469 12.7659 15.3 13.8597 15.3 15.0001V18.1001H6.69995V15.0001C6.69995 13.8597 7.15299 12.7659 7.95939 11.9595C8.7658 11.1531 9.85952 10.7001 11 10.7001C12.1404 10.7001 13.2341 11.1531 14.0405 11.9595ZM5.69995 6.6001C5.69995 7.10401 5.49977 7.58728 5.14346 7.9436C4.78714 8.29992 4.30386 8.5001 3.79995 8.5001C3.29604 8.5001 2.81277 8.29992 2.45645 7.9436C2.10013 7.58728 1.89995 7.10401 1.89995 6.6001C1.89995 6.09619 2.10013 5.61291 2.45645 5.25659C2.81277 4.90028 3.29604 4.7001 3.79995 4.7001C4.30386 4.7001 4.78714 4.90028 5.14346 5.25659C5.49977 5.61291 5.69995 6.09619 5.69995 6.6001Z" fill="#6B7280" stroke="#6B7280"/>
</svg>
