<svg width="24" height="24" viewBox="0 0 24 24" fill="none" xmlns="http://www.w3.org/2000/svg">
<path d="M4.3002 21.1V18.0003V18H4.8002C4.79875 16.9517 5.02724 15.918 5.46704 14.9711L4.3002 21.1ZM4.3002 21.1H1.7002L1.7002 18L1.7002 17.9998C1.7 17.5266 1.80814 17.0596 2.01634 16.6346L1.56733 16.4146L2.01634 16.6346C2.22454 16.2096 2.52727 15.838 2.90133 15.5481L2.59506 15.1529L2.90133 15.5481C3.27538 15.2582 3.71084 15.0579 4.17432 14.9623C4.42999 14.9096 4.69044 14.8896 4.94952 14.9021L4.3002 21.1ZM19.7002 18.0007V21.1H22.3002V18.0009C22.2994 17.5278 22.1905 17.0613 21.982 16.6367C21.7734 16.2122 21.4706 15.8409 21.0967 15.5511C20.7229 15.2614 20.2877 15.0609 19.8246 14.9649C19.5696 14.912 19.3099 14.8916 19.0515 14.9035C19.4797 15.8772 19.7017 16.9319 19.7002 18.0007ZM19.7002 18.0007L19.2002 18M15.1002 7.2C15.1002 8.02217 14.7736 8.81067 14.1922 9.39203C13.6109 9.97339 12.8224 10.3 12.0002 10.3C11.178 10.3 10.3895 9.97339 9.80817 9.39203C9.2268 8.81067 8.9002 8.02217 8.9002 7.2C8.9002 6.37783 9.2268 5.58933 9.80817 5.00797C10.3895 4.4266 11.178 4.1 12.0002 4.1C12.8224 4.1 13.6109 4.4266 14.1922 5.00797C14.7736 5.58933 15.1002 6.37783 15.1002 7.2ZM21.1002 9.6C21.1002 10.1039 20.9 10.5872 20.5437 10.9435C20.1874 11.2998 19.7041 11.5 19.2002 11.5C18.6963 11.5 18.213 11.2998 17.8567 10.9435C17.5004 10.5872 17.3002 10.1039 17.3002 9.6C17.3002 9.09609 17.5004 8.61281 17.8567 8.25649C18.213 7.90018 18.6963 7.7 19.2002 7.7C19.7041 7.7 20.1874 7.90018 20.5437 8.2565C20.9 8.61282 21.1002 9.09609 21.1002 9.6ZM15.0408 14.9594C15.8472 15.7658 16.3002 16.8596 16.3002 18V21.1H7.7002V18C7.7002 16.8596 8.15323 15.7658 8.95964 14.9594C9.76604 14.153 10.8598 13.7 12.0002 13.7C13.1406 13.7 14.2343 14.153 15.0408 14.9594ZM6.7002 9.6C6.7002 10.1039 6.50002 10.5872 6.1437 10.9435C5.78738 11.2998 5.30411 11.5 4.8002 11.5C4.29628 11.5 3.81301 11.2998 3.45669 10.9435C3.10037 10.5872 2.9002 10.1039 2.9002 9.6C2.9002 9.09609 3.10037 8.61281 3.45669 8.2565C3.81301 7.90018 4.29628 7.7 4.8002 7.7C5.30411 7.7 5.78738 7.90018 6.1437 8.2565C6.50002 8.61281 6.7002 9.09609 6.7002 9.6Z" fill="#3B82F6" stroke="#3B82F6"/>
</svg>
