<svg width="68" height="36" viewBox="0 0 68 36" fill="none" xmlns="http://www.w3.org/2000/svg">
<path fill-rule="evenodd" clip-rule="evenodd" d="M1.47059 15.423C2.29936 16.3098 2.13501 18.2145 2.05628 19.4829C1.97784 20.7512 0.772768 33.0555 0.772768 33.0555C0.694181 34.4008 1.92533 36.0737 4.25691 35.9975C6.58854 35.9216 8.55333 33.0555 8.55333 33.0555L8.00336 32.2432C8.00336 32.2432 6.22189 33.6382 5.69774 32.8519C5.17394 32.0653 6.11793 24.8364 6.54436 20.047C6.94327 15.5666 2.15495 15.4222 1.53606 15.4222C1.49348 15.4222 1.47059 15.423 1.47059 15.423Z" fill="white"/>
<path fill-rule="evenodd" clip-rule="evenodd" d="M10.9635 24.6833C7.19111 27.5753 7.71491 31.4312 7.71491 31.4312C8.04571 33.1642 8.64451 33.8448 9.57967 34.3959C10.5145 34.9471 12.3574 34.9471 14.2273 33.543C16.0972 32.139 16.7749 29.8821 16.7749 29.8821C16.7749 29.8821 16.5174 32.2835 17.7369 32.8475C18.9565 33.4118 20.3658 32.2309 20.3658 32.2309C20.0405 31.7717 20.0675 29.6066 20.0675 29.2392C20.0675 28.8717 20.4198 25.1715 20.5147 24.0824C20.6096 22.9933 20.2374 22.8569 20.2374 22.8569C19.858 22.3481 19.0011 22.0703 17.8811 22.0701C15.9852 22.0701 13.3349 22.8655 10.9635 24.6833ZM11.8153 31.7978C10.9481 31.2862 11.1785 29.7903 11.1785 29.7903C11.1785 29.7903 11.1649 27.5203 13.6446 25.1583C16.1244 22.7966 17.2221 23.7938 17.1543 24.3579C17.0864 24.9222 16.5716 28.3601 15.0132 30.2234C13.9142 31.5374 13.2061 32.0356 12.58 32.0356C12.3184 32.0356 12.0711 31.9487 11.8153 31.7978Z" fill="white"/>
<path fill-rule="evenodd" clip-rule="evenodd" d="M57.6641 15.4837C53.8915 18.3759 54.4156 22.2318 54.4156 22.2318C54.7461 23.9646 55.3451 24.6452 56.2801 25.1964C57.2151 25.7473 59.0579 25.7473 60.9279 24.3433C62.7979 22.9395 63.4755 20.6825 63.4755 20.6825C63.4755 20.6825 63.218 23.0838 64.4375 23.6479C65.657 24.2122 67.0663 23.0311 67.0663 23.0311C66.7411 22.5719 66.7681 20.407 66.7681 20.0394C66.7681 19.6722 67.1205 15.9718 67.2153 14.8828C67.3101 13.7937 66.938 13.6572 66.938 13.6572C66.5584 13.1484 65.7016 12.8705 64.5813 12.8705C62.6856 12.8705 60.0352 13.666 57.6641 15.4837ZM58.5158 22.5982C57.6487 22.0866 57.879 20.5907 57.879 20.5907C57.879 20.5907 57.8656 18.3206 60.3453 15.9588C62.8249 13.597 63.9225 14.5942 63.8547 15.1583C63.787 15.7226 63.2721 19.1605 61.714 21.0238C60.6148 22.3378 59.9067 22.836 59.2805 22.836C59.0188 22.836 58.7715 22.749 58.5158 22.5982Z" fill="white"/>
<path fill-rule="evenodd" clip-rule="evenodd" d="M42.6957 0.0711823C38.2625 0.746908 36.518 4.9205 35.9433 6.09331C35.3685 7.26578 33.4188 11.8568 32.2694 14.5597C31.1201 17.2627 28.2878 24.0995 28.2878 24.0995C28.2056 20.8002 26.5022 15.474 26.1534 14.5001C25.8042 13.5264 23.5262 7.70293 20.427 7.48433C17.3278 7.26578 16.5041 9.23035 16.5041 9.23035C19.9731 11.3927 21.5348 15.035 23.0169 20.1605C24.4992 25.2862 24.2649 32.1885 24.2649 32.1885C24.2649 32.1885 25.9069 32.4269 27.3642 31.8704C29.6423 30.9363 30.6276 28.6706 31.4689 26.5243C32.3105 24.3777 34.4655 19.409 35.3685 17.2429C36.2716 15.0763 39.022 8.7366 40.6022 5.59636C42.1827 2.45629 44.8098 0.50836 44.8098 0.50836C44.8098 0.50836 45.1648 3.8147e-06 43.7738 3.8147e-06C43.4919 3.8147e-06 43.1383 0.0209503 42.6957 0.0711823Z" fill="white"/>
<path fill-rule="evenodd" clip-rule="evenodd" d="M45.9222 6.72473C46.7511 7.61159 46.5866 9.51626 46.5081 10.7846C46.4295 12.0531 45.2244 24.3575 45.2244 24.3575C45.1458 25.7027 46.3769 27.3755 48.7085 27.2992C51.0403 27.2232 53.0049 24.3575 53.0049 24.3575L52.4549 23.5446C52.4549 23.5446 50.6735 24.94 50.1495 24.1536C49.6255 23.3673 50.5697 16.1381 50.9961 11.3488C51.3949 6.86852 46.6073 6.72395 45.9878 6.72395C45.9451 6.72395 45.9222 6.72473 45.9222 6.72473Z" fill="white"/>
<path fill-rule="evenodd" clip-rule="evenodd" d="M50.3433 15.5655C49.0492 15.6358 44.6885 15.9341 43.9153 16.0076C43.1424 16.0812 43.7599 17.9571 44.776 18.6346C45.7922 19.3122 48.8871 18.8563 48.8871 18.8563C48.8871 18.8563 51.2202 18.6928 52.6433 18.5533C54.0665 18.4138 54.4423 17.9865 54.4423 17.9865C55.872 16.576 54.4418 14.7825 54.4418 14.7825C53.5941 15.4977 51.6375 15.4956 50.3433 15.5655Z" fill="white"/>
<path fill-rule="evenodd" clip-rule="evenodd" d="M39.1287 13.8426C37.8578 14.964 37.5188 19.1758 37.5188 19.1758C37.5188 19.1758 37.0104 22.2937 36.7561 24.208C36.5021 26.1225 36.9822 26.7516 36.9822 26.7516C38.5074 29.0763 41.4729 27.7635 41.4729 27.7635C40.7384 26.4233 41.36 23.8526 41.6707 22.1296C41.9814 20.4066 42.9416 14.5813 43.0826 13.5419C43.1449 13.0841 42.6319 12.8705 41.9294 12.8705C41.0373 12.8705 39.8398 13.2154 39.1287 13.8426Z" fill="white"/>
<path fill-rule="evenodd" clip-rule="evenodd" d="M42.6422 7.6584H42.6355C40.8697 7.6584 40.0704 9.24858 40.0704 9.24858C40.0704 9.24858 39.2389 11.5208 41.4747 11.6639C43.7104 11.8071 44.3239 10.1789 44.3239 10.1789C44.3239 10.1789 45.1701 7.99606 43.0879 7.69202C42.933 7.66941 42.7846 7.65873 42.6422 7.6584Z" fill="white"/>
</svg>
