<svg width="24" height="24" viewBox="0 0 24 24" fill="none" xmlns="http://www.w3.org/2000/svg">
<path d="M4.30001 21.1V18.0003V18H4.80001C4.79857 16.9517 5.02705 15.9181 5.46686 14.9711L4.30001 21.1ZM4.30001 21.1H1.70001L1.70001 18L1.70001 17.9998C1.69981 17.5266 1.80796 17.0596 2.01616 16.6346C2.22436 16.2097 2.52709 15.838 2.90114 15.5481C3.2752 15.2583 3.71065 15.0579 4.17413 14.9623C4.4298 14.9096 4.69026 14.8896 4.94933 14.9021L4.30001 21.1ZM19.7 18.0007V21.1H22.3L22.3 18.0009L22.3 18M19.7 18.0007L18.8181 14.4199C19.187 14.3812 19.5606 14.3996 19.9258 14.4753C20.4636 14.5867 20.9688 14.8195 21.4028 15.1559C21.8369 15.4923 22.1884 15.9234 22.4306 16.4163C22.6727 16.9092 22.7991 17.4508 22.8 18H22.3M19.7 18.0007C19.7015 16.9319 19.4796 15.8772 19.0513 14.9035M19.7 18.0007L19.2 18H19.7V18.0007ZM19.7 18.0007L19.0513 14.9035M22.3 18C22.2991 17.5273 22.1902 17.061 21.9818 16.6367C21.7732 16.2122 21.4705 15.8409 21.0966 15.5511C20.7227 15.2614 20.2875 15.0609 19.8244 14.9649C19.5695 14.912 19.3097 14.8916 19.0513 14.9035M22.3 18L19.0513 14.9035M15.1 7.20001C15.1 8.02218 14.7734 8.81068 14.192 9.39204C13.6107 9.9734 12.8222 10.3 12 10.3C11.1778 10.3 10.3893 9.9734 9.80798 9.39204C9.22662 8.81068 8.90001 8.02218 8.90001 7.20001C8.90001 6.37784 9.22662 5.58934 9.80798 5.00798C10.3893 4.42661 11.1778 4.10001 12 4.10001C12.8222 4.10001 13.6107 4.42661 14.192 5.00798C14.7734 5.58934 15.1 6.37784 15.1 7.20001ZM21.1 9.60001C21.1 10.1039 20.8998 10.5872 20.5435 10.9435C20.1872 11.2998 19.7039 11.5 19.2 11.5C18.6961 11.5 18.2128 11.2998 17.8565 10.9435C17.5002 10.5872 17.3 10.1039 17.3 9.60001C17.3 9.0961 17.5002 8.61282 17.8565 8.2565C18.2128 7.90018 18.6961 7.70001 19.2 7.70001C19.7039 7.70001 20.1872 7.90018 20.5435 8.2565C20.8998 8.61282 21.1 9.0961 21.1 9.60001ZM15.0406 14.9594C15.847 15.7659 16.3 16.8596 16.3 18V21.1H7.70001V18C7.70001 16.8596 8.15305 15.7659 8.95945 14.9594C9.76586 14.153 10.8596 13.7 12 13.7C13.1404 13.7 14.2342 14.153 15.0406 14.9594ZM6.70001 9.60001C6.70001 10.1039 6.49984 10.5872 6.14352 10.9435C5.7872 11.2998 5.30392 11.5 4.80001 11.5C4.2961 11.5 3.81283 11.2998 3.45651 10.9435C3.10019 10.5872 2.90001 10.1039 2.90001 9.60001C2.90001 9.0961 3.10019 8.61282 3.45651 8.2565C3.81283 7.90018 4.2961 7.70001 4.80001 7.70001C5.30392 7.70001 5.7872 7.90018 6.14352 8.2565C6.49984 8.61282 6.70001 9.0961 6.70001 9.60001Z" fill="#6B7280" stroke="#6B7280"/>
</svg>
