<svg width="16" height="16" viewBox="0 0 16 16" fill="none" xmlns="http://www.w3.org/2000/svg">
<path fill-rule="evenodd" clip-rule="evenodd" d="M2.40002 13.6C2.40002 13.3878 2.48431 13.1843 2.63434 13.0343C2.78437 12.8843 2.98785 12.8 3.20002 12.8H12.8C13.0122 12.8 13.2157 12.8843 13.3657 13.0343C13.5157 13.1843 13.6 13.3878 13.6 13.6C13.6 13.8122 13.5157 14.0157 13.3657 14.1657C13.2157 14.3157 13.0122 14.4 12.8 14.4H3.20002C2.98785 14.4 2.78437 14.3157 2.63434 14.1657C2.48431 14.0157 2.40002 13.8122 2.40002 13.6ZM5.03442 7.43441C5.18445 7.28443 5.38789 7.20018 5.60002 7.20018C5.81216 7.20018 6.0156 7.28443 6.16562 7.43441L7.20002 8.46881V2.40001C7.20002 2.18783 7.28431 1.98435 7.43434 1.83432C7.58437 1.68429 7.78785 1.60001 8.00002 1.60001C8.2122 1.60001 8.41568 1.68429 8.56571 1.83432C8.71574 1.98435 8.80002 2.18783 8.80002 2.40001V8.46881L9.83443 7.43441C9.90822 7.358 9.9965 7.29705 10.0941 7.25512C10.1917 7.2132 10.2967 7.19113 10.4029 7.19021C10.5091 7.18928 10.6145 7.20952 10.7128 7.24975C10.8111 7.28997 10.9004 7.34938 10.9755 7.42449C11.0507 7.4996 11.1101 7.58893 11.1503 7.68724C11.1905 7.78556 11.2107 7.8909 11.2098 7.99713C11.2089 8.10335 11.1868 8.20833 11.1449 8.30593C11.103 8.40353 11.042 8.49181 10.9656 8.56561L8.56562 10.9656C8.4156 11.1156 8.21216 11.1998 8.00002 11.1998C7.78789 11.1998 7.58445 11.1156 7.43442 10.9656L5.03442 8.56561C4.88445 8.41558 4.8002 8.21214 4.8002 8.00001C4.8002 7.78787 4.88445 7.58443 5.03442 7.43441Z" fill="#111827"/>
</svg>
