<svg width="90" height="48" viewBox="0 0 90 48" fill="none" xmlns="http://www.w3.org/2000/svg">
<path fill-rule="evenodd" clip-rule="evenodd" d="M1.62741 20.564C2.73244 21.7464 2.51331 24.286 2.40833 25.9771C2.30374 27.6683 0.696984 44.0741 0.696984 44.0741C0.592201 45.8677 2.23374 48.0983 5.34251 47.9966C8.45135 47.8954 11.0711 44.0741 11.0711 44.0741L10.3378 42.9909C10.3378 42.9909 7.96247 44.851 7.26362 43.8025C6.56521 42.7538 7.82387 33.1151 8.39244 26.7293C8.92432 20.7554 2.53989 20.5629 1.71471 20.5629C1.65793 20.5629 1.62741 20.564 1.62741 20.564Z" fill="#ED1C24"/>
<path fill-rule="evenodd" clip-rule="evenodd" d="M14.2846 32.9109C9.25476 36.767 9.95316 41.9082 9.95316 41.9082C10.3942 44.2189 11.1926 45.1264 12.4395 45.8612C13.6859 46.596 16.1431 46.596 18.6364 44.7239C21.1295 42.8519 22.0331 39.8427 22.0331 39.8427C22.0331 39.8427 21.6898 43.0446 23.3158 43.7965C24.942 44.5489 26.8209 42.9744 26.8209 42.9744C26.3873 42.3622 26.4233 39.4754 26.4233 38.9855C26.4233 38.4956 26.893 33.5619 27.0196 32.1098C27.1461 30.6576 26.6498 30.4758 26.6498 30.4758C26.1439 29.7974 25.0014 29.427 23.5081 29.4267C20.9802 29.4267 17.4465 30.4873 14.2846 32.9109ZM15.4204 42.397C14.2641 41.7148 14.5712 39.7203 14.5712 39.7203C14.5712 39.7203 14.5531 36.6937 17.8594 33.5444C21.1658 30.3953 22.6294 31.7249 22.5391 32.4771C22.4484 33.2295 21.7621 37.8134 19.6842 40.2977C18.2189 42.0498 17.2747 42.714 16.4399 42.714C16.0911 42.714 15.7614 42.5982 15.4204 42.397Z" fill="#ED1C24"/>
<path fill-rule="evenodd" clip-rule="evenodd" d="M76.552 20.6449C71.522 24.5011 72.2208 29.6423 72.2208 29.6423C72.6614 31.9528 73.46 32.8603 74.7067 33.5951C75.9534 34.3297 78.4105 34.3297 80.9038 32.4576C83.3972 30.586 84.3006 27.5766 84.3006 27.5766C84.3006 27.5766 83.9572 30.7783 85.5832 31.5305C87.2092 32.2829 89.0883 30.7081 89.0883 30.7081C88.6547 30.0959 88.6907 27.2093 88.6907 26.7192C88.6907 26.2295 89.1606 21.2956 89.287 19.8437C89.4133 18.3915 88.9173 18.2096 88.9173 18.2096C88.4112 17.5312 87.2688 17.1607 85.7751 17.1607C83.2474 17.1607 79.7135 18.2212 76.552 20.6449ZM77.6876 30.1309C76.5315 29.4487 76.8386 27.4543 76.8386 27.4543C76.8386 27.4543 76.8207 24.4274 80.127 21.2783C83.4332 18.1292 84.8966 19.4588 84.8062 20.211C84.7159 20.9634 84.0294 25.5473 81.9519 28.0317C80.4863 29.7837 79.5421 30.448 78.7073 30.448C78.3583 30.448 78.0285 30.3319 77.6876 30.1309Z" fill="#ED1C24"/>
<path fill-rule="evenodd" clip-rule="evenodd" d="M56.5942 0.0949059C50.6832 0.995876 48.3573 6.56066 47.591 8.1244C46.8247 9.68771 44.2251 15.8091 42.6925 19.413C41.1601 23.0169 37.3836 32.1326 37.3836 32.1326C37.2741 27.7336 35.0029 20.632 34.5379 19.3335C34.0723 18.0352 31.0349 10.2706 26.9026 9.9791C22.7704 9.68771 21.6721 12.3071 21.6721 12.3071C26.2974 15.1903 28.3797 20.0466 30.3559 26.8806C32.3322 33.7149 32.0198 42.918 32.0198 42.918C32.0198 42.918 34.2092 43.2359 36.1523 42.4938C39.1897 41.2484 40.5034 38.2274 41.6252 35.3658C42.7473 32.5035 45.6206 25.8787 46.8247 22.9905C48.0288 20.1018 51.696 11.6488 53.803 7.46181C55.9102 3.27504 59.413 0.677807 59.413 0.677807C59.413 0.677807 59.8864 0 58.0317 0C57.6558 0 57.1844 0.0279274 56.5942 0.0949059Z" fill="#ED1C24"/>
<path fill-rule="evenodd" clip-rule="evenodd" d="M60.8962 8.96635C62.0014 10.1488 61.7821 12.6884 61.6774 14.3795C61.5725 16.0708 59.9658 32.4767 59.9658 32.4767C59.861 34.2704 61.5025 36.5007 64.6113 36.399C67.7204 36.2976 70.3399 32.4767 70.3399 32.4767L69.6065 31.3929C69.6065 31.3929 67.2313 33.2534 66.5326 32.2049C65.834 31.1564 67.0929 21.5175 67.6614 15.1318C68.1931 9.15807 61.8096 8.96532 60.9837 8.96532C60.9268 8.96532 60.8962 8.96635 60.8962 8.96635Z" fill="#ED1C24"/>
<path fill-rule="evenodd" clip-rule="evenodd" d="M66.791 20.7541C65.0655 20.8478 59.2512 21.2456 58.2204 21.3436C57.1898 21.4417 58.0131 23.943 59.3679 24.8463C60.7229 25.7497 64.8494 25.1419 64.8494 25.1419C64.8494 25.1419 67.9602 24.9238 69.8577 24.7378C71.7552 24.5519 72.2564 23.9821 72.2564 23.9821C74.1626 22.1015 72.2557 19.7102 72.2557 19.7102C71.1254 20.6637 68.5166 20.661 66.791 20.7541Z" fill="#ED1C24"/>
<path fill-rule="evenodd" clip-rule="evenodd" d="M51.8382 18.4568C50.1437 19.9521 49.6917 25.5678 49.6917 25.5678C49.6917 25.5678 49.0138 29.725 48.6748 32.2774C48.3361 34.83 48.9762 35.6688 48.9762 35.6688C51.0098 38.7684 54.9638 37.0181 54.9638 37.0181C53.9845 35.2311 54.8132 31.8036 55.2275 29.5062C55.6418 27.2089 56.9221 19.4418 57.1101 18.0559C57.1931 17.4456 56.5091 17.1607 55.5726 17.1607C54.3831 17.1607 52.7864 17.6206 51.8382 18.4568Z" fill="#ED1C24"/>
<path fill-rule="evenodd" clip-rule="evenodd" d="M56.5229 10.2114H56.5139C54.1595 10.2114 53.0938 12.3316 53.0938 12.3316C53.0938 12.3316 51.9851 15.3613 54.9662 15.5521C57.9471 15.7429 58.7652 13.572 58.7652 13.572C58.7652 13.572 59.8934 10.6616 57.1171 10.2562C56.9107 10.226 56.7127 10.2118 56.5229 10.2114Z" fill="#ED1C24"/>
</svg>
