<svg width="8" height="8" viewBox="0 0 8 8" fill="none" xmlns="http://www.w3.org/2000/svg">
<path fill-rule="evenodd" clip-rule="evenodd" d="M4 0C4.21217 0 4.41566 0.0842856 4.56569 0.234315C4.71571 0.384344 4.8 0.587827 4.8 0.8V3.2H7.2C7.41217 3.2 7.61566 3.28429 7.76569 3.43431C7.91571 3.58434 8 3.78783 8 4C8 4.21217 7.91571 4.41566 7.76569 4.56569C7.61566 4.71571 7.41217 4.8 7.2 4.8H4.8V7.2C4.8 7.41217 4.71571 7.61566 4.56569 7.76569C4.41566 7.91571 4.21217 8 4 8C3.78783 8 3.58434 7.91571 3.43431 7.76569C3.28429 7.61566 3.2 7.41217 3.2 7.2V4.8H0.8C0.587827 4.8 0.384344 4.71571 0.234315 4.56569C0.0842856 4.41566 0 4.21217 0 4C0 3.78783 0.0842856 3.58434 0.234315 3.43431C0.384344 3.28429 0.587827 3.2 0.8 3.2H3.2V0.8C3.2 0.587827 3.28429 0.384344 3.43431 0.234315C3.58434 0.0842856 3.78783 0 4 0Z" fill="white"/>
</svg>
