<svg width="24" height="24" viewBox="0 0 24 24" fill="none" xmlns="http://www.w3.org/2000/svg">
<path d="M4.65659 4.6565C5.01291 4.30018 5.49619 4.1 6.0001 4.1H8.4001C8.90401 4.1 9.38728 4.30018 9.7436 4.6565C10.0999 5.01281 10.3001 5.49609 10.3001 6V8.4C10.3001 8.90391 10.0999 9.38718 9.7436 9.7435C9.38728 10.0998 8.90401 10.3 8.4001 10.3H6.0001C5.49619 10.3 5.01291 10.0998 4.65659 9.7435C4.30028 9.38718 4.1001 8.90391 4.1001 8.4V6C4.1001 5.49609 4.30028 5.01281 4.65659 4.6565ZM4.65659 14.2565C5.01291 13.9002 5.49619 13.7 6.0001 13.7H8.4001C8.90401 13.7 9.38728 13.9002 9.7436 14.2565C10.0999 14.6128 10.3001 15.0961 10.3001 15.6V18C10.3001 18.5039 10.0999 18.9872 9.7436 19.3435C9.38728 19.6998 8.90401 19.9 8.4001 19.9H6.0001C5.49619 19.9 5.01291 19.6998 4.65659 19.3435C4.30028 18.9872 4.1001 18.5039 4.1001 18V15.6C4.1001 15.0961 4.30028 14.6128 4.65659 14.2565ZM13.7001 6C13.7001 5.49609 13.9003 5.01281 14.2566 4.6565C14.6129 4.30018 15.0962 4.1 15.6001 4.1H18.0001C18.504 4.1 18.9873 4.30018 19.3436 4.6565C19.6999 5.01281 19.9001 5.49609 19.9001 6V8.4C19.9001 8.90391 19.6999 9.38718 19.3436 9.7435C18.9873 10.0998 18.504 10.3 18.0001 10.3H15.6001C15.0962 10.3 14.6129 10.0998 14.2566 9.7435C13.9003 9.38718 13.7001 8.90391 13.7001 8.4V6ZM13.7001 15.6C13.7001 15.0961 13.9003 14.6128 14.2566 14.2565C14.6129 13.9002 15.0962 13.7 15.6001 13.7H18.0001C18.504 13.7 18.9873 13.9002 19.3436 14.2565C19.6999 14.6128 19.9001 15.0961 19.9001 15.6V18C19.9001 18.5039 19.6999 18.9872 19.3436 19.3435C18.9873 19.6998 18.504 19.9 18.0001 19.9H15.6001C15.0962 19.9 14.6129 19.6998 14.2566 19.3435C13.9003 18.9872 13.7001 18.5039 13.7001 18V15.6Z" fill="#3B82F6" stroke="#3B82F6"/>
</svg>
