<svg width="18" height="18" viewBox="0 0 18 18" fill="none" xmlns="http://www.w3.org/2000/svg">
    <path d="M1.73338 1.6565C2.0897 1.30018 2.57297 1.10001 3.07688 1.10001H5.47688C5.98079 1.10001 6.46406 1.30018 6.82038 1.6565C7.1767 2.01282 7.37688 2.4961 7.37688 3.00001V5.40001C7.37688 5.90392 7.1767 6.38719 6.82038 6.74351C6.46406 7.09983 5.98079 7.30001 5.47688 7.30001H3.07688C2.57297 7.30001 2.0897 7.09983 1.73338 6.74351C1.37706 6.38719 1.17688 5.90392 1.17688 5.40001V3.00001C1.17688 2.49609 1.37706 2.01282 1.73338 1.6565ZM1.73338 11.2565C2.0897 10.9002 2.57297 10.7 3.07688 10.7H5.47688C5.98079 10.7 6.46406 10.9002 6.82038 11.2565C7.1767 11.6128 7.37688 12.0961 7.37688 12.6V15C7.37688 15.5039 7.1767 15.9872 6.82038 16.3435C6.46406 16.6998 5.98079 16.9 5.47688 16.9H3.07688C2.57297 16.9 2.0897 16.6998 1.73338 16.3435C1.37706 15.9872 1.17688 15.5039 1.17688 15V12.6C1.17688 12.0961 1.37706 11.6128 1.73338 11.2565ZM10.7769 3.00001C10.7769 2.4961 10.9771 2.01282 11.3334 1.6565C11.6897 1.30018 12.173 1.10001 12.6769 1.10001H15.0769C15.5808 1.10001 16.0641 1.30018 16.4204 1.6565C16.7767 2.01282 16.9769 2.4961 16.9769 3.00001V5.40001C16.9769 5.90392 16.7767 6.38719 16.4204 6.74351C16.0641 7.09983 15.5808 7.30001 15.0769 7.30001H12.6769C12.173 7.30001 11.6897 7.09983 11.3334 6.74351C10.9771 6.38719 10.7769 5.90392 10.7769 5.40001V3.00001ZM10.7769 12.6C10.7769 12.0961 10.9771 11.6128 11.3334 11.2565C11.6897 10.9002 12.173 10.7 12.6769 10.7H15.0769C15.5808 10.7 16.0641 10.9002 16.4204 11.2565C16.7767 11.6128 16.9769 12.0961 16.9769 12.6V15C16.9769 15.5039 16.7767 15.9872 16.4204 16.3435C16.0641 16.6998 15.5808 16.9 15.0769 16.9H12.6769C12.173 16.9 11.6897 16.6998 11.3334 16.3435C10.9771 15.9872 10.7769 15.5039 10.7769 15V12.6Z" fill="#6B7280" stroke="#6B7280"/>
</svg>
